{"title":"Star Wars Rebels S02E11 The Protector of Concord Dawn 1080P WEB-","uid":13359705,"size":921065497,"categoryP":"video","categoryS":"hd___tv_shows","magnet":"?xt=urn:btih:84c008cdcd698f984b2b814838aa1659c43f1fa4&amp;dn=Star+Wars+Rebels+S02E11+The+Protector+of+Concord+Dawn+1080P+WEB-&amp;tr=udp%3A%2F%2Ftracker.leechers-paradise.org%3A6969&amp;tr=udp%3A%2F%2Fzer0day.ch%3A1337&amp;tr=udp%3A%2F%2Fopen.demonii.com%3A1337&amp;tr=udp%3A%2F%2Ftracker.coppersurfer.tk%3A6969&amp;tr=udp%3A%2F%2Fexodus.desync.com%3A6969","seeders":9,"leechers":0,"uploader":"jmanwf","files":2,"time":1454123719,"description":"In need of new hyperspace routes due to Imperial pressure, the rebels find a shortcut but must gain permission from the leader of the nearby system.\r\n\r\nVideo\r\nID : 2\r\nFormat : AVC\r\nFormat/Info : Advanced Video Codec\r\nFormat profile :   \r\nFormat settings, CABAC : Yes\r\nFormat settings, ReFrames : 4 frames\r\nCodec ID : avc1\r\nCodec ID/Info : Advanced Video Coding\r\nDuration : 22mn 7s\r\nBit rate : 5 037 Kbps\r\nWidth : 1 920 pixels\r\nHeight : 1 080 pixels\r\nDisplay aspect ratio : 16:9\r\nFrame rate mode : Constant\r\nFrame rate : 23.976 fps\r\nColor space : YUV\r\nChroma subsampling : 4:2:0\r\nBit depth : 8 bits\r\nScan type : Progressive\r\nBits/(Pixel*Frame) : 0.101\r\nStream size : 797 MiB (91%)\r\nLanguage : English\r\nEncoded date : UTC 2016-01-29 13:29:56\r\nTagged date : UTC 2016-01-29 13:31:40\r\nColor range : Limited\r\nColor primaries : BT.709\r\nTransfer characteristics : BT.709\r\nMatrix coefficients : BT.709\r\n\r\nAudio #1\r\nID : 1\r\nFormat : AAC\r\nFormat/Info : Advanced Audio Codec\r\nFormat profile : LC\r\nCodec ID : 40\r\nDuration : 22mn 7s\r\nBit rate mode : Variable\r\nBit rate : 126 Kbps\r\nMaximum bit rate : 184 Kbps\r\nChannel(s) : 2 channels\r\nChannel positions : Front: L R\r\nSampling rate : 48.0 KHz\r\nCompression mode : Lossy\r\nStream size : 19.9 MiB (2%)\r\nLanguage : English\r\nEncoded date : UTC 2016-01-29 13:29:56\r\nTagged date : UTC 2016-01-29 13:31:40\r\n\r\nAudio #2\r\nID : 3\r\nFormat : AC-3\r\nFormat/Info : Audio Coding 3\r\nMode extension : CM (complete main)\r\nFormat settings, Endianness : Big\r\nCodec ID : ac-3\r\nDuration : 22mn 7s\r\nBit rate mode : Constant\r\nBit rate : 384 Kbps\r\nChannel(s) : 6 channels\r\nChannel positions : Front: L C R, Side: L R, LFE\r\nSampling rate : 48.0 KHz\r\nBit depth : 16 bits\r\nCompression mode : Lossy\r\nStream size : 60.8 MiB (7%)\r\nLanguage : English\r\nEncoded date : UTC 2016-01-29 13:29:56\r\nTagged date : UTC 2016-01-29 13:31:40\r\n\r\nText\r\nID : 4-CC1\r\nFormat : EIA-608\r\nMuxing mode : Final Cut\r\nCodec ID : c608\r\nDuration : 21mn 24s\r\nBit rate mode : Constant\r\nStream size : 0.00 Byte (0%)\r\nLanguage : English\r\nEncoded date : UTC 2016-01-29 13:29:56\r\nTagged date : UTC 2016-01-29 13:30:00","torrent":{"xt":"urn:btih:84c008cdcd698f984b2b814838aa1659c43f1fa4","amp;dn":"Star+Wars+Rebels+S02E11+The+Protector+of+Concord+Dawn+1080P+WEB-","amp;tr":["udp%3A%2F%2Ftracker.leechers-paradise.org%3A6969","udp%3A%2F%2Fzer0day.ch%3A1337","udp%3A%2F%2Fopen.demonii.com%3A1337","udp%3A%2F%2Ftracker.coppersurfer.tk%3A6969","udp%3A%2F%2Fexodus.desync.com%3A6969"],"infoHash":"84c008cdcd698f984b2b814838aa1659c43f1fa4","infoHashBuffer":{"type":"Buffer","data":[132,192,8,205,205,105,143,152,75,43,129,72,56,170,22,89,196,63,31,164]},"announce":[],"urlList":[]}}